<?xml version="1.0" encoding="UTF-8"?>
<svg width="37px" height="40px" viewBox="0 0 37 40" version="1.1" xmlns="http://www.w3.org/2000/svg" xmlns:xlink="http://www.w3.org/1999/xlink">
    <!-- Generator: Sketch 47 (45396) - http://www.bohemiancoding.com/sketch -->
    <title>Shape</title>
    <desc>Created with Sketch.</desc>
    <defs></defs>
    <g id="Propy-Design" stroke="none" stroke-width="1" fill="none" fill-rule="evenodd">
        <g id="Mainpage" transform="translate(-261.000000, -1884.000000)" fill-rule="nonzero" fill="#4CCAF7">
            <g id="How-property-works" transform="translate(160.000000, 932.000000)">
                <g id="Buying-process" transform="translate(97.000000, 674.000000)">
                    <g id="Group-7">
                        <path d="M38.4074154,301.169642 C38.1169178,301.007999 37.8110421,300.874061 37.4940559,300.769697 L37.4940559,295.232684 C39.4630734,294.583976 40.8363048,292.844578 40.972983,290.826117 C41.1096611,288.807656 39.9828471,286.907964 38.1183266,286.013462 C36.2538061,285.11896 34.0190715,285.405953 32.4568783,286.740525 L27.5156033,283.972018 C27.9197851,281.989263 27.057143,279.964768 25.3297088,278.842043 C23.6022747,277.719319 21.3500098,277.719319 19.6225757,278.842043 C17.8951416,279.964768 17.0324995,281.989263 17.4366812,283.972018 L12.5273739,286.740525 C10.963875,285.404772 8.72681918,285.118483 6.86155591,286.015437 C4.99629264,286.912391 3.87112119,288.815482 4.01182074,290.835419 C4.15252029,292.855356 5.53130948,294.593299 7.5038966,295.237128 L7.5038966,300.769697 C6.04509805,301.247206 4.88281228,302.335459 4.33628911,303.735541 C3.78976595,305.135623 3.91647616,306.700305 4.68161573,307.999809 C5.36023661,309.150003 6.4832993,309.98842 7.80073844,310.328376 C8.23705057,310.442856 8.6869154,310.501123 9.13881011,310.501686 C10.3762417,310.498056 11.5709825,310.061107 12.5045399,309.270745 L17.4686488,312.039251 C17.0697005,314.02017 17.9341651,316.040192 19.6600995,317.160082 C21.3860339,318.279973 23.6347526,318.279973 25.360687,317.160082 C27.0866214,316.040192 27.9510861,314.02017 27.5521377,312.039251 L32.484279,309.270745 C32.7347345,309.482065 33.005411,309.669562 33.2926022,309.830667 C34.0709052,310.270117 34.9547382,310.501606 35.8545756,310.501686 C36.3064668,310.501072 36.7563248,310.442805 37.1926473,310.328376 C39.1997713,309.804743 40.6850946,308.156151 40.9559993,306.151351 C41.226904,304.146552 40.2300386,302.180366 38.4302494,301.169642 L38.4074154,301.169642 Z M34.5530383,288.33586 C35.6148168,287.738162 36.9626311,287.953563 37.7721728,288.850324 C38.5817145,289.747085 38.627501,291.075431 37.8815297,292.022961 C37.1355584,292.97049 35.8056057,293.273286 34.705056,292.746161 C33.6045063,292.219037 33.0398972,291.008813 33.3565374,289.85565 C33.5325246,289.214726 33.9629063,288.668057 34.5530383,288.33586 L34.5530383,288.33586 Z M31.0046366,288.806906 C30.9559241,288.937258 30.9133007,289.070573 30.8767663,289.206851 C30.5009488,290.559231 30.726071,292.003025 31.4972217,293.186067 C32.2683723,294.369108 33.5146563,295.182635 34.9320825,295.428213 L34.9320825,300.578612 C34.7889895,300.602313 34.6474188,300.63342 34.5073703,300.671933 C33.6187878,300.903251 32.8109285,301.36386 32.16917,302.005082 L27.4425346,299.33434 C27.8128468,298.04283 27.6344848,296.660704 26.9475088,295.498387 C26.2605327,294.336071 25.1225301,293.490998 23.7890966,293.152972 L23.7890966,287.820375 C24.8175114,287.560252 25.7379779,286.996764 26.4241387,286.207265 L31.0046366,288.806906 Z M19.9210191,298.001191 C19.9210191,296.619443 21.0721429,295.499314 22.4921261,295.499314 C23.9121093,295.499314 25.0632331,296.619443 25.0632331,298.001191 C25.0632331,299.382939 23.9121093,300.503067 22.4921261,300.503067 C21.0721429,300.503067 19.9210191,299.382939 19.9210191,298.001191 Z M22.4921261,280.505831 C23.5324554,280.504033 24.4713749,281.112454 24.8707728,282.047197 C25.2701706,282.981941 25.0513263,284.05877 24.3163554,284.775224 C23.5813845,285.491677 22.4751481,285.706543 21.5138305,285.319562 C20.5525129,284.932581 19.9255875,284.020026 19.9255859,283.007707 C19.9255836,281.627692 21.0739266,280.508282 22.4921261,280.505831 Z M21.2042892,287.842595 L21.2042892,293.175191 C19.8708556,293.513217 18.732853,294.35829 18.0458769,295.520607 C17.3589009,296.682923 17.1805389,298.065049 17.5508511,299.356559 L12.8105153,302.000638 C12.1687568,301.359416 11.3608976,300.898807 10.472315,300.667489 C10.3322665,300.631938 10.1906958,300.600832 10.0476028,300.574169 L10.0476028,295.423769 C10.1891735,295.397106 10.3307443,295.370443 10.472315,295.330449 C11.8603532,294.969225 13.0292658,294.058443 13.6949875,292.819437 C14.3607092,291.580432 14.4622917,290.126637 13.9750487,288.81135 L18.569247,286.229484 C19.2554078,287.018983 20.1758743,287.582471 21.2042892,287.842595 L21.2042892,287.842595 Z M6.91934652,289.251289 C7.62452973,288.052872 9.19422069,287.637074 10.4263637,288.322309 C11.6585068,289.007545 12.0870674,290.534636 11.3838577,291.73415 C10.6806479,292.933665 9.11164334,293.351908 7.878374,292.668594 C7.28487157,292.339754 6.85021168,291.794648 6.67029284,291.153543 C6.490374,290.512438 6.57998193,289.828019 6.91934652,289.251289 L6.91934652,289.251289 Z M10.426647,307.662078 C9.49088083,308.190261 8.31544321,308.091975 7.48599821,307.416189 C6.65655321,306.740403 6.35054498,305.631691 6.72044271,304.642469 C7.09034045,303.653248 8.05701148,302.995143 9.13881011,302.996056 C9.36541926,302.995444 9.59112725,303.023831 9.81012935,303.080489 C10.8110543,303.344325 11.5511178,304.167439 11.6868637,305.167832 C11.8226095,306.168225 11.3274619,307.150043 10.4312138,307.657634 L10.426647,307.662078 Z M22.4921261,315.500995 C21.4517951,315.500993 20.5139886,314.890949 20.1162991,313.955516 C19.7186097,313.020083 19.939421,311.943633 20.6756997,311.228453 C21.4119783,310.513272 22.5186055,310.30032 23.4792146,310.688964 C24.4398237,311.077607 25.0650809,311.991245 25.0632331,313.003562 C25.0607141,314.383575 23.9103277,315.500997 22.4921261,315.500995 Z M22.4921261,307.999809 C20.9774572,307.998893 19.5398409,308.649548 18.5646802,309.777341 L13.9704819,307.19992 C14.3344555,306.223672 14.3775449,305.161467 14.0937854,304.16034 L18.8295545,301.494041 C19.7934494,302.446124 21.1095244,302.982203 22.4829925,302.982203 C23.8564605,302.982203 25.1725355,302.446124 26.1364305,301.494041 L30.8676327,304.16034 C30.6247028,305.021325 30.6247028,305.930102 30.8676327,306.791087 C30.9072116,306.930327 30.9513573,307.066605 31.0000698,307.19992 L26.4332723,309.777341 C25.4550319,308.64597 24.0115829,307.994947 22.4921261,307.999809 Z M38.0649056,306.751093 C37.4837035,307.732818 36.2970605,308.211951 35.1723185,307.919038 C34.0475765,307.626125 33.2655078,306.634287 33.2659307,305.501311 C33.2663536,304.368336 34.0491624,303.377051 35.1741228,303.084933 C35.3931249,303.028275 35.6188329,302.999888 35.845442,303.0005 C36.762021,303.003445 37.6076772,303.480979 38.0650628,304.253898 C38.5224485,305.026818 38.5223886,305.978228 38.0649056,306.751093 L38.0649056,306.751093 Z" id="Shape"></path>
                    </g>
                </g>
            </g>
        </g>
    </g>
</svg>