<?xml version="1.0" encoding="UTF-8"?>
<svg width="44px" height="35px" viewBox="0 0 44 35" version="1.1" xmlns="http://www.w3.org/2000/svg" xmlns:xlink="http://www.w3.org/1999/xlink">
    <!-- Generator: Sketch 47 (45396) - http://www.bohemiancoding.com/sketch -->
    <title>camera_icon</title>
    <desc>Created with Sketch.</desc>
    <defs></defs>
    <g id="Propy-Design" stroke="none" stroke-width="1" fill="none" fill-rule="evenodd">
        <g id="New-property" transform="translate(-714.000000, -1574.000000)" fill-rule="nonzero" fill="#C1C1C1">
            <g id="Photos" transform="translate(272.000000, 1470.000000)">
                <g id="Drop-photo-here" transform="translate(192.000000, 2.000000)">
                    <g id="camera_icon" transform="translate(250.000000, 102.000000)">
                        <path d="M43.75,12 C43.75,9.23857625 41.5114237,7 38.75,7 L31.71,7 L29.5,1.04 C29.3541754,0.649708941 28.981643,0.39072924 28.565,0.39 L15.44,0.39 C15.0215275,0.388640656 14.6464639,0.647993092 14.5,1.04 L12.29,7 L5.25,7 C2.48857625,7 0.25,9.23857625 0.25,12 L0.25,29.61 C0.25,32.3714237 2.48857625,34.61 5.25,34.61 L38.75,34.61 C41.5114237,34.61 43.75,32.3714237 43.75,29.61 L43.75,12 Z M41.75,29.635 C41.75,31.2918542 40.4068542,32.635 38.75,32.635 L5.25,32.635 C3.59314575,32.635 2.25,31.2918542 2.25,29.635 L2.25,12 C2.25,10.3431458 3.59314575,9 5.25,9 L12.975,9 C13.279272,8.99859723 13.5663526,8.85873743 13.755,8.62 L13.8,8.565 C13.8200589,8.53436423 13.8384199,8.50264979 13.855,8.47 C13.8877521,8.42263627 13.9161989,8.37243597 13.94,8.32 L16.14,2.41 L27.865,2.41 L30.03,8.225 C30.1343901,8.67707952 30.536029,8.99797662 31,9 L38.75,9 C40.4068542,9 41.75,10.3431458 41.75,12 L41.75,29.635 Z" id="Shape"></path>
                        <path d="M37.37,12.53 L34.705,12.53 C34.1527153,12.53 33.705,12.9777153 33.705,13.53 C33.705,14.0822847 34.1527153,14.53 34.705,14.53 L37.365,14.53 C37.9172847,14.53 38.365,14.0822847 38.365,13.53 C38.365,12.9777153 37.9172847,12.53 37.365,12.53 L37.37,12.53 Z" id="Shape"></path>
                        <path d="M22,10.41 C16.8168076,10.41 12.615,14.6118076 12.615,19.795 C12.615,24.9781924 16.8168076,29.18 22,29.18 C27.1831924,29.18 31.385,24.9781924 31.385,19.795 C31.3794884,14.6140923 27.1809077,10.4155116 22,10.41 Z M22,27.175 C19.0125915,27.1749993 16.3194367,25.3751604 15.1766726,22.6149611 C14.0339085,19.8547618 14.6666547,16.6779497 16.7797868,14.5662484 C18.8929188,12.454547 22.0701588,11.8239525 24.8295834,12.9685858 C27.5890081,14.113219 29.3870226,16.8075921 29.385,19.795 C29.3822421,23.87248 26.07748,27.1772421 22,27.18 L22,27.175 Z" id="Shape"></path>
                    </g>
                </g>
            </g>
        </g>
    </g>
</svg>