<?xml version="1.0" encoding="UTF-8"?>
<svg width="44px" height="38px" viewBox="0 0 44 38" version="1.1" xmlns="http://www.w3.org/2000/svg" xmlns:xlink="http://www.w3.org/1999/xlink">
    <!-- Generator: Sketch 47 (45396) - http://www.bohemiancoding.com/sketch -->
    <title>Shape</title>
    <desc>Created with Sketch.</desc>
    <defs></defs>
    <g id="Propy-Design" stroke="none" stroke-width="1" fill="none" fill-rule="evenodd">
        <g id="Mainpage" transform="translate(-257.000000, -1609.000000)" fill-rule="nonzero" fill="#4CCAF7">
            <g id="How-property-works" transform="translate(160.000000, 932.000000)">
                <g id="Buying-process" transform="translate(97.000000, 674.000000)">
                    <g id="Group-7">
                        <path d="M7.48,21.4066667 L1.1,21.4066667 C0.513333333,21.4066667 0,21.92 0,22.5066667 L0,38.1266667 C0,38.7133333 0.513333333,39.2266667 1.1,39.2266667 L7.48,39.2266667 C8.06666667,39.2266667 8.58,38.7133333 8.58,38.1266667 L8.58,22.5066667 C8.58,21.92 8.06666667,21.4066667 7.48,21.4066667 Z M6.38,37.1 L2.2,37.1 L2.2,23.6066667 L6.38,23.6066667 L6.38,37.1 Z M34.2466667,3 C28.8933333,3 24.4933333,7.4 24.4933333,12.7533333 C24.4933333,18.1066667 28.8933333,22.5066667 34.2466667,22.5066667 C39.6,22.5066667 44,18.1066667 44,12.68 C44,7.25333333 39.6,3 34.2466667,3 Z M34.2466667,20.2333333 C30.0666667,20.2333333 26.6933333,16.86 26.6933333,12.68 C26.6933333,8.5 30.0666667,5.12666667 34.2466667,5.12666667 C38.4266667,5.12666667 41.8,8.57333333 41.8,12.68 C41.8,16.7866667 38.4266667,20.2333333 34.2466667,20.2333333 Z M32.56,10.9933333 C32.56,11.36 32.8533333,11.6533333 33.22,11.6533333 L35.2733333,11.6533333 C36.8133333,11.6533333 38.1333333,12.9 38.1333333,14.5133333 C38.1333333,15.98 37.0333333,17.1533333 35.64,17.3 L35.64,17.96 C35.64,18.5466667 35.1266667,19.06 34.54,19.06 C33.9533333,19.06 33.44,18.5466667 33.44,17.96 L33.44,17.3 L31.46,17.3 C30.8733333,17.3 30.36,16.7866667 30.36,16.2 C30.36,15.6133333 30.8733333,15.1 31.46,15.1 L35.2733333,15.1 C35.64,15.1 35.9333333,14.8066667 35.9333333,14.44 C35.9333333,14.0733333 35.64,13.78 35.2733333,13.78 L33.22,13.78 C31.68,13.78 30.36,12.5333333 30.36,10.92 C30.36,9.30666667 31.6066667,8.06 33.22,8.06 L33.44,8.06 L33.44,7.4 C33.44,6.81333333 33.9533333,6.3 34.54,6.3 C35.1266667,6.3 35.64,6.81333333 35.64,7.4 L35.64,8.06 L37.0333333,8.06 C37.62,8.06 38.1333333,8.57333333 38.1333333,9.16 C38.1333333,9.74666667 37.62,10.26 37.0333333,10.26 L33.22,10.26 C32.8533333,10.3333333 32.56,10.6266667 32.56,10.9933333 Z M39.8933333,33.4333333 C39.38,34.6066667 38.3533333,35.4866667 36.96,35.78 L18.4066667,40.6933333 C18.3333333,40.6933333 18.1866667,40.6933333 18.1133333,40.6933333 C17.9666667,40.6933333 17.8933333,40.6933333 17.7466667,40.62 L9.97333333,38.0533333 L9.97333333,35.78 L18.1133333,38.42 L36.4466667,33.58 C37.1066667,33.4333333 37.62,33.0666667 37.84,32.5533333 C38.06,32.04 37.9866667,31.7466667 37.3266667,31.38 C35.86,30.5733333 27.5733333,31.4533333 20.3866667,32.8466667 C20.1666667,32.92 19.8733333,32.8466667 19.6533333,32.7 L14.8866667,30.1333333 L12.8333333,32.8466667 C12.6133333,33.14 12.32,33.2866667 11.9533333,33.2866667 C11.7333333,33.2866667 11.5133333,33.2133333 11.2933333,33.0666667 C10.78,32.7 10.7066667,32.04 11.0733333,31.5266667 L15.1066667,26.32 C15.3266667,26.0266667 15.6933333,25.88 16.06,25.88 L17.0866667,25.9533333 C17.7466667,26.0266667 19.0666667,26.1 20.3866667,26.1733333 C21.9266667,26.2466667 23.4666667,26.3933333 23.98,26.3933333 C25.4466667,26.4666667 25.8866667,26.1 26.0333333,25.8066667 C26.3266667,25.2933333 26.3266667,24.56 26.1066667,24.1933333 C25.5933333,23.3866667 24.2,23.3866667 22.9533333,23.3866667 C22.66,23.3866667 22.44,23.3866667 22.1466667,23.3866667 L21.0466667,23.3866667 C18.6266667,23.3133333 16.1333333,23.24 13.7133333,23.1666667 C12.54,23.0933333 11.2933333,23.5333333 10.0466667,24.0466667 L10.0466667,21.7 C11.22,21.26 12.4666667,20.8933333 13.7866667,20.9666667 C16.2066667,21.04 18.7,21.1133333 21.12,21.1866667 L22.22,21.1866667 C22.44,21.1866667 22.66,21.1866667 22.9533333,21.1866667 C24.5666667,21.1866667 26.7666667,21.1866667 27.94,22.9466667 C28.6733333,24.0466667 28.7466667,25.66 28.0133333,26.9066667 C27.28,28.1533333 25.8866667,28.74 23.9066667,28.5933333 C23.3933333,28.5933333 21.8533333,28.4466667 20.3133333,28.3733333 C18.9933333,28.3 17.6733333,28.1533333 17.0133333,28.1533333 L16.5733333,28.1533333 L16.3533333,28.4466667 L20.46,30.72 C23.76,30.1333333 35.7866667,28.08 38.5,29.62 C39.9666667,30.3533333 40.5533333,31.82 39.8933333,33.4333333 Z" id="Shape"></path>
                    </g>
                </g>
            </g>
        </g>
    </g>
</svg>