<?xml version="1.0" encoding="utf-8"?>
<!-- Generator: Adobe Illustrator 22.0.1, SVG Export Plug-In . SVG Version: 6.00 Build 0)  -->
<svg version="1.1" id="Layer_1" xmlns="http://www.w3.org/2000/svg" xmlns:xlink="http://www.w3.org/1999/xlink" x="0px" y="0px"
	 viewBox="0 0 1024 1024" style="enable-background:new 0 0 1024 1024;" xml:space="preserve">
<style type="text/css">
	.st0{fill:#C1C1C1;}
</style>
<g id="Layer_1_1_">
</g>
<g>
	<path class="st0" d="M719.3,20.5h-542c-25.2,0-62.7,16.7-62.7,62.7v857.5c0,25.2,16.7,62.7,62.7,62.7h669.3
		c25.2,0,62.7-16.7,62.7-62.7V210.5L719.3,20.5z M721.1,81.4l127.3,127.3H721.1V81.4z M846.6,961.7H177.4
		c-16.8,0-20.7-11.5-20.9-20.9V83.2c0-16.8,11.4-20.6,21.1-20.9h501.8v146.4c0,20.3,14.7,41.8,41.8,41.8h146.4v690.2
		C867.5,957.6,856,961.4,846.6,961.7z"/>
	<rect x="219.2" y="281.9" class="st0" width="585.6" height="41.8"/>
	<rect x="219.2" y="449.3" class="st0" width="585.6" height="41.8"/>
	<rect x="219.2" y="616.6" class="st0" width="585.6" height="41.8"/>
	<rect x="219.2" y="783.9" class="st0" width="303.3" height="41.8"/>
</g>
</svg>
