<?xml version="1.0" encoding="UTF-8"?>
<svg width="35px" height="34px" viewBox="0 0 35 34" version="1.1" xmlns="http://www.w3.org/2000/svg" xmlns:xlink="http://www.w3.org/1999/xlink">
    <!-- Generator: Sketch 47 (45396) - http://www.bohemiancoding.com/sketch -->
    <title>Shape</title>
    <desc>Created with Sketch.</desc>
    <defs></defs>
    <g id="Propy-Design" stroke="none" stroke-width="1" fill="none" fill-rule="evenodd">
        <g id="Mainpage" transform="translate(-261.000000, -1754.000000)" fill-rule="nonzero" fill="#4CCAF7">
            <g id="How-property-works" transform="translate(160.000000, 932.000000)">
                <g id="Buying-process" transform="translate(97.000000, 674.000000)">
                    <g id="Group-7" transform="translate(0.000000, 124.000000)">
                        <path d="M15.1416667,44.4467354 C15.6083333,44.9140893 15.6083333,45.6151203 15.1416667,46.0824742 C14.9083333,46.3161512 14.6166667,46.4329897 14.325,46.4329897 C14.0333333,46.4329897 13.7416667,46.3161512 13.5083333,46.0824742 C11.4666667,44.0378007 10.5333333,41.0584192 11.0583333,38.1958763 C11.175,37.5532646 11.7583333,37.1443299 12.4,37.2611684 C13.0416667,37.3780069 13.45,37.9621993 13.3333333,38.604811 C12.925,40.766323 13.625,42.9278351 15.1416667,44.4467354 Z M38.65,57.6494845 C38.4166667,57.8831615 38.125,58 37.8333333,58 C37.5416667,58 37.25,57.8831615 37.0166667,57.6494845 L30.6,51.2233677 C27.6833333,54.0274914 23.8333333,55.604811 19.75,55.604811 C15.55,55.604811 11.5833333,53.9690722 8.60833333,50.9896907 C5.63333333,47.95189 4,44.0378007 4,39.7731959 C4,35.5085911 5.63333333,31.5945017 8.60833333,28.6151203 C11.5833333,25.6357388 15.55,24 19.75,24 C23.95,24 27.9166667,25.6357388 30.8916667,28.6151203 C33.8666667,31.5945017 35.5,35.5670103 35.5,39.7731959 C35.5,43.3367698 34.3333333,46.7250859 32.175,49.4707904 L38.65,55.9553265 C39.1166667,56.4810997 39.1166667,57.1821306 38.65,57.6494845 Z M33.225,39.7731959 C33.225,36.1512027 31.825,32.8213058 29.3166667,30.2508591 C26.8083333,27.6804124 23.3666667,26.3367698 19.75,26.3367698 C16.1333333,26.3367698 12.8083333,27.7388316 10.2416667,30.2508591 C7.675,32.7628866 6.33333333,36.209622 6.33333333,39.7731959 C6.33333333,43.3367698 7.73333333,46.7250859 10.2416667,49.2955326 C12.75,51.8659794 16.1916667,53.2680412 19.75,53.2680412 C23.3666667,53.2680412 26.6916667,51.8659794 29.2583333,49.3539519 C31.825,46.8419244 33.225,43.395189 33.225,39.7731959 Z" id="Shape"></path>
                    </g>
                </g>
            </g>
        </g>
    </g>
</svg>